<svg xmlns="http://www.w3.org/2000/svg"><symbol id="svg-icon-arrow" viewBox="0 0 16 11"><path fill="currentColor" d="M15.744 4.654L11.299.258a.895.895 0 0 0-1.257 0 .871.871 0 0 0 0 1.243l2.928 2.895H.892a.884.884 0 0 0-.89.88c0 .486.398.879.89.879H12.97L10.042 9.05a.871.871 0 0 0 0 1.243.895.895 0 0 0 1.257 0l4.445-4.395a.876.876 0 0 0 0-1.244z"/></symbol><symbol id="svg-icon-chevron-left" viewBox="0 0 16 16"><path fill="currentColor" d="M4.37 8l6.29 6.67 1-1L6.33 8l5.3-5.64-1-1z"/></symbol><symbol id="svg-icon-chevron-right" viewBox="0 0 16 16"><path fill="currentColor" d="M5.34 1.33l-1 1L9.67 8l-5.3 5.64 1 1L11.63 8z"/></symbol><symbol id="svg-icon-hamburger" viewBox="0 0 16 16"><g fill="none" stroke="currentColor" stroke-width="1.7" stroke-linecap="round"><path class="st0" d="M1 14h14M1 2h14M1 8h14"/></g></symbol><symbol id="svg-icon-key-info-placeholder" viewBox="0 0 61 58"><path fill="currentColor" d="M36.702.078l-1.676 23.888 21.653-8.242 3.423 12.573-22.073 4.889 14.18 17.532-11.036 7.335-11.037-19.139-11.105 19.139-10.967-7.335 14.11-17.532L.102 28.297l3.422-12.573 21.653 8.242L23.571.078z"/></symbol><symbol id="svg-icon-search" viewBox="28 28 16 16"><path d="M34.545 41.091c1.55 0 2.974-.545 4.097-1.449l4.115 4.144a.726.726 0 1 0 1.031-1.027l-4.122-4.15a6.504 6.504 0 0 0 1.425-4.064A6.553 6.553 0 0 0 34.545 28 6.553 6.553 0 0 0 28 34.545a6.553 6.553 0 0 0 6.545 6.546zm0-11.636a5.097 5.097 0 0 1 5.091 5.09 5.097 5.097 0 0 1-5.09 5.091 5.097 5.097 0 0 1-5.091-5.09 5.097 5.097 0 0 1 5.09-5.091z" fill="currentColor"/></symbol></svg>