<svg xmlns="http://www.w3.org/2000/svg"><symbol id="svg-icon-arrow" viewBox="0 0 16 11"><path fill="currentColor" d="M15.744 4.654L11.299.258a.895.895 0 0 0-1.257 0 .871.871 0 0 0 0 1.243l2.928 2.895H.892a.884.884 0 0 0-.89.88c0 .486.398.879.89.879H12.97L10.042 9.05a.871.871 0 0 0 0 1.243.895.895 0 0 0 1.257 0l4.445-4.395a.876.876 0 0 0 0-1.244z"/></symbol><symbol id="svg-icon-chevron-left" viewBox="0 0 16 16"><path fill="currentColor" d="M4.37 8l6.29 6.67 1-1L6.33 8l5.3-5.64-1-1z"/></symbol><symbol id="svg-icon-chevron-right" viewBox="0 0 16 16"><path fill="currentColor" d="M5.34 1.33l-1 1L9.67 8l-5.3 5.64 1 1L11.63 8z"/></symbol><symbol id="svg-icon-facebook" viewBox="0 0 30 30"><path fill="currentColor" d="M18.6 15.2h-2v8h-3v-8H12v-2.7h1.5v-1.7c0-2.2.9-3.6 3.3-3.6h2V10h-1.3c-.9 0-1 .4-1 1.1v1.4h2.3l-.2 2.7z"/></symbol><symbol id="svg-icon-hamburger" viewBox="0 0 16 16"><g fill="none" stroke="currentColor" stroke-width="1.7" stroke-linecap="round"><path class="st0" d="M1 14h14M1 2h14M1 8h14"/></g></symbol><symbol id="svg-icon-home-book" viewBox="0 0 56 56"><style>.st0{fill:#d8e2e7}.st1{fill:#92b0cb}</style><path class="st0" d="M47.5 9.8h-1.3V1.6c0-.5-.5-1-1-1H13.1C10 .6 7.5 3.1 7.5 6.2v43.5c0 3.1 2.5 5.6 5.6 5.6h34.4c.5 0 1-.5 1-1V10.8c0-.5-.5-1-1-1zm-3.3 0h-2.4V6.4c0-.5-.4-1-1-1H13.2c-.5 0-1 .5-1 1 0 .6.5 1 1 1h26.5v2.4H13.1c-2 0-3.6-1.6-3.6-3.6s1.6-3.6 3.6-3.6h31.1v7.2z"/><path class="st1" d="M29.1 23.2c2.3 0 4.2 1.9 4.2 4.2s-1.9 4.2-4.2 4.2-4.1-1.9-4.1-4.2 1.8-4.2 4.1-4.2zm0 8.4c-2.8 0-7.5 1.9-7.5 8.4h15.1c0-6.5-4.8-8.4-7.6-8.4z"/></symbol><symbol id="svg-icon-home-heart" viewBox="0 0 56 56"><style>.st0{fill:#d8e2e7}.st1{fill:#92b0cb}</style><path class="st0" d="M40 4c-4.1 0-9 2.1-12 7.8C24.9 6.1 20.1 4 16 4 9.1 4 2 9.8 2 19.4c0 13.9 23.7 31.4 24.7 32.1.7.5 1.8.5 2.5 0 1-.7 24.7-18.3 24.7-32.1C54 9.8 46.9 4 40 4z"/><path class="st1" d="M52.2 31.6c0 .7-.6 1.3-1.2 1.3H36.8l-2.7 5.6c-.2.4-.6.7-1.1.7-.6 0-1.1-.4-1.2-1l-3.1-11.6-3.6 7.6c-.2.4-.6.7-1 .7-.5 0-.9-.2-1.2-.6l-3-4.8-1.9 2.8c-.2.3-.6.5-1 .5H5c-.7 0-1.2-.6-1.2-1.3 0-.7.6-1.3 1.2-1.3h11.4l2.6-3.7c.2-.3.6-.5 1-.5s.8.2 1 .6l2.8 4.5 4-8.6c.2-.4.6-.7 1.1-.7.6 0 1.1.4 1.2 1l3.1 11.6 1.6-3.3c.2-.4.6-.7 1.1-.7h15c.8-.2 1.3.4 1.3 1.2z"/></symbol><symbol id="svg-icon-home-shield" viewBox="0 0 56 56"><style>.st0{fill:#d8e2e7}.st1{fill:#92b0cb}</style><path class="st0" d="M28 .5c-6 6-23.9 10.8-23.9 10.8 0 19 1.2 35.7 23.9 44.1C50.7 47 51.9 30.3 51.9 11.3c0 0-17.9-4.8-23.9-10.8z"/><path class="st1" d="M36.4 25.4h-6.1v-6.1h-5.6v6.1h-6.1V31h6.1v6.1h5.6V31h6.1z"/></symbol><symbol id="svg-icon-key-info-placeholder" viewBox="0 0 61 58"><path fill="currentColor" d="M36.702.078l-1.676 23.888 21.653-8.242 3.423 12.573-22.073 4.889 14.18 17.532-11.036 7.335-11.037-19.139-11.105 19.139-10.967-7.335 14.11-17.532L.102 28.297l3.422-12.573 21.653 8.242L23.571.078z"/></symbol><symbol id="svg-icon-linkedin" viewBox="0 0 30 30"><path fill="currentColor" d="M11.9 21.5H8.5v-8.9h3.4v8.9zm-1.7-10.2c-1.1 0-1.7-.8-1.7-1.7S9.2 8 10.2 8c1.1 0 1.7.8 1.7 1.7.1.8-.6 1.6-1.7 1.6zm7.9 4.1c-.8 0-1.4.6-1.4 1.4v4.8h-3.4v-8.9h3.4v1s1.1-1 2.7-1c2 0 3.5 1.5 3.5 4.3v4.5h-3.4v-4.8c-.1-.7-.7-1.3-1.4-1.3z"/></symbol><symbol id="svg-icon-round_email" viewBox="0 0 24 24"><title/><g fill="none" fill-rule="evenodd"><path d="M6.779 8H17.22L12 12.362 6.779 8zM18 8.65v6.646l-3.987-3.323L18 8.651zM17.285 16H6.715l4.047-3.381L12 13.651l1.238-1.032L17.285 16zM6 15.296V8.65l3.987 3.322L6 15.296zM12 23c6.075 0 11-4.925 11-11S18.075 1 12 1 1 5.925 1 12s4.925 11 11 11zm0-1c5.523 0 10-4.477 10-10S17.523 2 12 2 2 6.477 2 12s4.477 10 10 10z" fill="#000"/></g></symbol><symbol id="svg-icon-round_twitter" viewBox="0 0 24 24"><title/><g fill="none" fill-rule="evenodd"><path d="M12 23c6.075 0 11-4.925 11-11S18.075 1 12 1 1 5.925 1 12s4.925 11 11 11zm0-1c5.523 0 10-4.477 10-10S17.523 2 12 2 2 6.477 2 12s4.477 10 10 10zm4.052-14.24a2.417 2.417 0 0 0-1.774-.837c-1.342-.022-2.43 1.112-2.43 2.533 0 .202.022.399.063.588-2.02-.131-3.81-1.183-5.01-2.769-.209.38-.328.824-.328 1.3 0 .9.429 1.7 1.08 2.172a2.323 2.323 0 0 1-1.1-.337v.033c0 1.258.837 2.313 1.95 2.558a2.289 2.289 0 0 1-1.098.037c.309 1.032 1.207 1.784 2.27 1.809a4.691 4.691 0 0 1-3.598 1.062 6.558 6.558 0 0 0 3.725 1.168c4.47.001 6.915-3.89 6.915-7.264 0-.11-.002-.22-.007-.33a4.999 4.999 0 0 0 1.213-1.304 4.638 4.638 0 0 1-1.396.382 2.492 2.492 0 0 0 1.069-1.396c-.47.285-.99.49-1.544.595z" fill="#000"/></g></symbol><symbol id="svg-icon-search" viewBox="28 28 16 16"><path d="M34.545 41.091c1.55 0 2.974-.545 4.097-1.449l4.115 4.144a.726.726 0 1 0 1.031-1.027l-4.122-4.15a6.504 6.504 0 0 0 1.425-4.064A6.553 6.553 0 0 0 34.545 28 6.553 6.553 0 0 0 28 34.545a6.553 6.553 0 0 0 6.545 6.546zm0-11.636a5.097 5.097 0 0 1 5.091 5.09 5.097 5.097 0 0 1-5.09 5.091 5.097 5.097 0 0 1-5.091-5.09 5.097 5.097 0 0 1 5.09-5.091z" fill="currentColor"/></symbol><symbol id="svg-icon-twitter" viewBox="0 0 30 30"><path fill="currentColor" d="M21.7 12.5v.4c0 4.1-3.1 8.8-8.8 8.8-1.7 0-3.4-.5-4.7-1.4 1.6.2 3.2-.2 4.6-1.3-1.3 0-2.5-.9-2.9-2.1.5.1.9.1 1.4-.1-1.4-.3-2.5-1.5-2.5-3 .4.2.9.4 1.4.4-.8-.6-1.4-1.5-1.4-2.6 0-.6.2-1.1.4-1.6 1.5 1.9 3.8 3.1 6.4 3.2-.1-.2-.1-.5-.1-.7 0-1.7 1.4-3.1 3.1-3.1.9 0 1.7.4 2.3 1 .7-.1 2.3-.3 2.3-.3-.5.7-.9 2-1.5 2.4z"/></symbol></svg>