<?xml version="1.0" encoding="utf-8"?>
<svg xmlns="http://www.w3.org/2000/svg" height="40px" viewBox="0 0 177 40" width="177px">
<path fill="#fff" d="M34.1,16.4C34.1,8,27.5,1.1,19,0.1C18.4,0,17.7,0,17.1,0c-0.7,0-0.8,0-0.8,0c-0.7,0.1-1.2,0.6-1.2,1.3V4v3.5
	c-4.3,0.9-7.5,4.6-7.5,8.9v14.2c0,0.7,0.6,1.2,1.2,1.2h1.5c0.7,0,1.2-0.5,1.2-1.2V16.4c0-2.9,2.5-5.3,5.5-5.3c3.1,0,5.5,2.4,5.5,5.3
	v4.8v1.4c0,0.7,0.4,0.8,0.9,0.4c0,0,0.6-0.5,1.2-1.3c1.1-1.5,1.8-3.3,1.8-5.3c0-4.4-3.2-8.1-7.5-8.9V4c6.3,0.9,11.1,6.1,11.1,12.4
	c0,4.4-2.4,8.3-5.9,10.5c-0.5,0.3-1.1,0.6-1.1,0.6c-0.3,0.1-0.5,0.5-0.5,0.9v2.3c0,0.7,0.5,1,1.1,0.8c0,0,0.5-0.2,1.2-0.6
	C30.4,28.1,34.1,22.7,34.1,16.4 M9.5,36.2c-3.1,0-5.5-2.4-5.5-5.3v0V16.6c0-0.7-0.6-1.2-1.2-1.2H1.2C0.6,15.4,0,16,0,16.6v14.2v0
	c0,5,4.3,9.1,9.5,9.1s9.5-4.1,9.5-9.1V16.6c0-0.7-0.6-1.2-1.2-1.2h-1.5c-0.7,0-1.2,0.5-1.2,1.2v14.2C15.1,33.8,12.6,36.2,9.5,36.2
	 M49,13.7c0,2.6,1.9,4.6,4.9,4.6c3,0,4.9-2,4.9-4.6V5.4h-2.9v8.3c0,1.2-0.8,2.1-2,2.1s-2-1-2-2.1V5.4H49V13.7z M61,18h2.8v-4.4
	c0-1.3,0.6-2.2,1.7-2.2c1.2,0,1.5,0.9,1.5,2.1V18h2.8v-5.1c0-1.2-0.1-2.1-0.7-2.8c-0.5-0.6-1.3-1-2.4-1c-1.3,0-2.4,0.5-2.8,1.5V9.3
	H61V18z M76.2,15.9c1.2,0,2.1-1,2.1-2.2c0-1.2-0.8-2.2-2.1-2.2c-1.2,0-2.1,1-2.1,2.2C74.1,14.9,74.9,15.9,76.2,15.9z M78.3,18v-1.2
	c-0.4,0.8-1.5,1.4-2.6,1.4c-2.5,0-4.2-2-4.2-4.6s1.7-4.6,4.2-4.6c1.1,0,2.2,0.7,2.6,1.5V5.4H81V18H78.3z M91.8,14.3h-6.2
	c0.1,1,0.5,1.9,1.9,1.9c1,0,1.4-0.4,1.6-1h2.7c-0.3,1.6-1.8,3-4.3,3c-3,0-4.7-1.9-4.7-4.6c0-2.5,1.6-4.6,4.6-4.6
	c2.7,0,4.5,1.8,4.5,4C91.9,13.4,91.9,13.8,91.8,14.3z M87.4,10.9c-1.1,0-1.9,0.6-1.9,1.8h3.6C89.2,11.6,88.4,10.9,87.4,10.9z
	 M100,9.3c-0.3-0.1-0.5-0.1-0.8-0.1c-1.2,0-2.2,0.7-2.6,1.5V9.3h-2.8V18h2.8v-3.4c0-2.1,1-2.9,2.5-2.9c0.4,0,0.6,0,1,0.1V9.3z
	 M105.8,12.9c-1.5-0.5-2.2-0.6-2.2-1.2c0-0.5,0.5-0.8,1-0.8c0.8,0,1.1,0.4,1.1,1.1h2.7c0-1.7-1.2-2.9-3.7-2.9
	c-2.3,0-3.8,0.8-3.8,2.6c0,1.7,1.2,2.1,2.7,2.5c1.6,0.5,2.3,0.6,2.3,1.3c0,0.6-0.5,0.8-1.1,0.8c-0.8,0-1.4-0.4-1.4-1.3h-2.7
	c0,2,1.5,3.1,4,3.1c2.2,0,3.9-0.7,3.9-2.8C108.6,13.8,107.3,13.3,105.8,12.9z M115.8,15.9c-0.3,0-0.6,0.1-1,0.1
	c-0.7,0-1.2-0.2-1.2-1.5v-3.1h2V9.3h-2V6.8h-2.7v2.6h-1.4v2.1h1.4v3.7c0,2.9,1.8,3.1,3.1,3.1c0.8,0,1.4-0.1,1.8-0.1V15.9z
	 M121.6,15.9c1.2,0,2.1-1,2.1-2.2c0-1.2-0.8-2.2-2.1-2.2s-2.1,1-2.1,2.2C119.5,14.9,120.3,15.9,121.6,15.9z M123.7,9.3h2.8V18h-2.8
	v-1.2c-0.4,0.8-1.5,1.4-2.6,1.4c-2.5,0-4.2-2-4.2-4.6s1.7-4.6,4.2-4.6c1.1,0,2.2,0.7,2.6,1.5V9.3z M128.7,18h2.8v-4.4
	c0-1.3,0.6-2.2,1.7-2.2c1.2,0,1.5,0.9,1.5,2.1V18h2.8v-5.1c0-1.2-0.1-2.1-0.7-2.8c-0.5-0.6-1.3-1-2.4-1c-1.3,0-2.4,0.5-2.8,1.5V9.3
	h-2.8V18z M143.9,15.9c1.2,0,2.1-1,2.1-2.2c0-1.2-0.8-2.2-2.1-2.2s-2.1,1-2.1,2.2C141.9,14.9,142.7,15.9,143.9,15.9z M146,18v-1.2
	c-0.4,0.8-1.5,1.4-2.6,1.4c-2.5,0-4.2-2-4.2-4.6s1.7-4.6,4.2-4.6c1.1,0,2.2,0.7,2.6,1.5V5.4h2.8V18H146z M150.7,6.4
	c0,1,0.8,1.7,1.8,1.7c1,0,1.8-0.8,1.8-1.7c0-1-0.8-1.7-1.8-1.7C151.5,4.7,150.7,5.5,150.7,6.4z M151.1,18h2.8V9.3h-2.8V18z
	 M156.2,18h2.8v-4.4c0-1.3,0.6-2.2,1.7-2.2c1.2,0,1.5,0.9,1.5,2.1V18h2.8v-5.1c0-1.2-0.1-2.1-0.7-2.8c-0.5-0.6-1.3-1-2.4-1
	c-1.3,0-2.4,0.5-2.8,1.5V9.3h-2.8V18z M171.4,11.4c-1.2,0-2.1,1-2.1,2.2c0,1.2,0.8,2.2,2.1,2.2c1.3,0,2.1-1,2.1-2.2
	C173.5,12.5,172.6,11.4,171.4,11.4z M176.2,9.3v8.6c0,1.6-0.5,2.6-1.4,3.3c-0.8,0.6-1.9,0.9-3.5,0.9c-1.6,0-2.7-0.4-3.4-1
	c-0.8-0.6-1.2-1.5-1.3-2.5h2.8c0.1,0.7,0.7,1.5,1.9,1.5c1.3,0,2.1-0.6,2.1-2v-1.5c-0.5,0.8-1.5,1.3-2.6,1.3c-2.5,0-4.2-1.8-4.2-4.4
	c0-2.6,1.7-4.6,4.2-4.6c1.1,0,2.2,0.5,2.7,1.5V9.3H176.2z M49.2,37V24.4h5.3c2.8,0,4.6,2.1,4.6,4.6s-1.8,4.6-4.6,4.6h-2.4V37H49.2z
	 M54.1,31.1c1.2,0,2-1,2-2.2c0-1.2-0.8-2.2-2-2.2h-2v4.4H54.1z M64.9,34.9c1.2,0,2.1-1,2.1-2.2c0-1.2-0.8-2.2-2.1-2.2
	c-1.2,0-2.1,1-2.1,2.2C62.8,33.9,63.6,34.9,64.9,34.9z M66.9,28.3h2.8V37h-2.8v-1.2c-0.4,0.8-1.5,1.4-2.6,1.4c-2.5,0-4.2-2-4.2-4.6
	c0-2.6,1.7-4.6,4.2-4.6c1.1,0,2.2,0.7,2.6,1.5V28.3z M77.4,34.9c-0.3,0-0.6,0.1-1,0.1c-0.7,0-1.2-0.2-1.2-1.5v-3.1h2v-2.1h-2v-2.6
	h-2.7v2.6h-1.4v2.1h1.4v3.7c0,2.9,1.8,3.1,3.1,3.1c0.8,0,1.4-0.1,1.8-0.1V34.9z M78.5,25.4c0,1,0.8,1.7,1.8,1.7c1,0,1.8-0.8,1.8-1.7
	c0-1-0.8-1.7-1.8-1.7C79.3,23.7,78.5,24.5,78.5,25.4z M78.9,37h2.8v-8.7h-2.8V37z M92.4,33.3h-6.2c0.1,1,0.5,1.9,1.9,1.9
	c1,0,1.4-0.4,1.6-1h2.7c-0.3,1.6-1.8,3-4.3,3c-3,0-4.7-1.9-4.7-4.6c0-2.5,1.6-4.6,4.6-4.6c2.7,0,4.5,1.8,4.5,4
	C92.5,32.4,92.5,32.8,92.4,33.3z M88.1,29.9c-1.1,0-1.9,0.6-1.9,1.8h3.6C89.8,30.6,89.1,29.9,88.1,29.9z M94.4,37h2.8v-4.4
	c0-1.3,0.6-2.2,1.7-2.2c1.2,0,1.5,0.9,1.5,2.1V37h2.8v-5.1c0-1.2-0.1-2.1-0.7-2.8c-0.5-0.6-1.3-1-2.4-1c-1.3,0-2.4,0.5-2.8,1.5v-1.3
	h-2.8V37z M110.7,34.9c-0.3,0-0.6,0.1-1,0.1c-0.7,0-1.2-0.2-1.2-1.5v-3.1h2v-2.1h-2v-2.6h-2.7v2.6h-1.4v2.1h1.4v3.7
	c0,2.9,1.8,3.1,3.1,3.1c0.8,0,1.4-0.1,1.8-0.1V34.9z M116.6,24.4h4.6c4.2,0,6.6,3.1,6.6,6.3s-2.4,6.3-6.6,6.3h-4.6V24.4z
	 M121.1,26.9h-1.6v7.6h1.6c2.4,0,3.7-1.8,3.7-3.8S123.5,26.9,121.1,26.9z M133.8,34.9c1.2,0,2.1-1,2.1-2.2c0-1.2-0.8-2.2-2.1-2.2
	c-1.2,0-2.1,1-2.1,2.2C131.8,33.9,132.6,34.9,133.8,34.9z M135.9,28.3h2.8V37h-2.8v-1.2c-0.4,0.8-1.5,1.4-2.6,1.4
	c-2.5,0-4.2-2-4.2-4.6c0-2.6,1.7-4.6,4.2-4.6c1.1,0,2.2,0.7,2.6,1.5V28.3z M146.4,34.9c-0.3,0-0.6,0.1-1,0.1c-0.7,0-1.2-0.2-1.2-1.5
	v-3.1h2v-2.1h-2v-2.6h-2.7v2.6h-1.4v2.1h1.4v3.7c0,2.9,1.8,3.1,3.1,3.1c0.8,0,1.4-0.1,1.8-0.1V34.9z M152.1,34.9
	c1.2,0,2.1-1,2.1-2.2c0-1.2-0.8-2.2-2.1-2.2c-1.2,0-2.1,1-2.1,2.2C150.1,33.9,150.9,34.9,152.1,34.9z M154.2,28.3h2.8V37h-2.8v-1.2
	c-0.4,0.8-1.5,1.4-2.6,1.4c-2.5,0-4.2-2-4.2-4.6c0-2.6,1.7-4.6,4.2-4.6c1.1,0,2.2,0.7,2.6,1.5V28.3z"/>
</svg>
