<svg xmlns="http://www.w3.org/2000/svg" height="40" viewBox="0 0 177 40" width="177"><path fill="#fff" d="M34.1 16.4C34.1 8 27.5 1.1 19 .1c-.6-.1-1.3-.1-1.9-.1h-.8c-.7.1-1.2.6-1.2 1.3v6.2c-4.3.9-7.5 4.6-7.5 8.9v14.2c0 .7.6 1.2 1.2 1.2h1.5c.7 0 1.2-.5 1.2-1.2V16.4c0-2.9 2.5-5.3 5.5-5.3 3.1 0 5.5 2.4 5.5 5.3v6.2c0 .7.4.8.9.4 0 0 .6-.5 1.2-1.3 1.1-1.5 1.8-3.3 1.8-5.3 0-4.4-3.2-8.1-7.5-8.9V4c6.3.9 11.1 6.1 11.1 12.4 0 4.4-2.4 8.3-5.9 10.5-.5.3-1.1.6-1.1.6-.3.1-.5.5-.5.9v2.3c0 .7.5 1 1.1.8 0 0 .5-.2 1.2-.6 5.6-2.8 9.3-8.2 9.3-14.5M9.5 36.2c-3.1 0-5.5-2.4-5.5-5.3V16.6c0-.7-.6-1.2-1.2-1.2H1.2c-.6 0-1.2.6-1.2 1.2v14.2c0 5 4.3 9.1 9.5 9.1s9.5-4.1 9.5-9.1V16.6c0-.7-.6-1.2-1.2-1.2h-1.5c-.7 0-1.2.5-1.2 1.2v14.2c0 3-2.5 5.4-5.6 5.4M49 13.7c0 2.6 1.9 4.6 4.9 4.6 3 0 4.9-2 4.9-4.6V5.4h-2.9v8.3c0 1.2-.8 2.1-2 2.1s-2-1-2-2.1V5.4H49v8.3zM61 18h2.8v-4.4c0-1.3.6-2.2 1.7-2.2 1.2 0 1.5.9 1.5 2.1V18h2.8v-5.1c0-1.2-.1-2.1-.7-2.8-.5-.6-1.3-1-2.4-1-1.3 0-2.4.5-2.8 1.5V9.3H61V18zm15.2-2.1c1.2 0 2.1-1 2.1-2.2 0-1.2-.8-2.2-2.1-2.2-1.2 0-2.1 1-2.1 2.2 0 1.2.8 2.2 2.1 2.2zm2.1 2.1v-1.2c-.4.8-1.5 1.4-2.6 1.4-2.5 0-4.2-2-4.2-4.6S73.2 9 75.7 9c1.1 0 2.2.7 2.6 1.5V5.4H81V18h-2.7zm13.5-3.7h-6.2c.1 1 .5 1.9 1.9 1.9 1 0 1.4-.4 1.6-1h2.7c-.3 1.6-1.8 3-4.3 3-3 0-4.7-1.9-4.7-4.6 0-2.5 1.6-4.6 4.6-4.6 2.7 0 4.5 1.8 4.5 4 0 .4 0 .8-.1 1.3zm-4.4-3.4c-1.1 0-1.9.6-1.9 1.8h3.6c.1-1.1-.7-1.8-1.7-1.8zM100 9.3c-.3-.1-.5-.1-.8-.1-1.2 0-2.2.7-2.6 1.5V9.3h-2.8V18h2.8v-3.4c0-2.1 1-2.9 2.5-2.9.4 0 .6 0 1 .1V9.3zm5.8 3.6c-1.5-.5-2.2-.6-2.2-1.2 0-.5.5-.8 1-.8.8 0 1.1.4 1.1 1.1h2.7c0-1.7-1.2-2.9-3.7-2.9-2.3 0-3.8.8-3.8 2.6 0 1.7 1.2 2.1 2.7 2.5 1.6.5 2.3.6 2.3 1.3 0 .6-.5.8-1.1.8-.8 0-1.4-.4-1.4-1.3h-2.7c0 2 1.5 3.1 4 3.1 2.2 0 3.9-.7 3.9-2.8 0-1.5-1.3-2-2.8-2.4zm10 3c-.3 0-.6.1-1 .1-.7 0-1.2-.2-1.2-1.5v-3.1h2V9.3h-2V6.8h-2.7v2.6h-1.4v2.1h1.4v3.7c0 2.9 1.8 3.1 3.1 3.1.8 0 1.4-.1 1.8-.1v-2.3zm5.8 0c1.2 0 2.1-1 2.1-2.2 0-1.2-.8-2.2-2.1-2.2s-2.1 1-2.1 2.2c0 1.2.8 2.2 2.1 2.2zm2.1-6.6h2.8V18h-2.8v-1.2c-.4.8-1.5 1.4-2.6 1.4-2.5 0-4.2-2-4.2-4.6s1.7-4.6 4.2-4.6c1.1 0 2.2.7 2.6 1.5V9.3zm5 8.7h2.8v-4.4c0-1.3.6-2.2 1.7-2.2 1.2 0 1.5.9 1.5 2.1V18h2.8v-5.1c0-1.2-.1-2.1-.7-2.8-.5-.6-1.3-1-2.4-1-1.3 0-2.4.5-2.8 1.5V9.3h-2.8V18zm15.2-2.1c1.2 0 2.1-1 2.1-2.2 0-1.2-.8-2.2-2.1-2.2s-2.1 1-2.1 2.2c.1 1.2.9 2.2 2.1 2.2zM146 18v-1.2c-.4.8-1.5 1.4-2.6 1.4-2.5 0-4.2-2-4.2-4.6s1.7-4.6 4.2-4.6c1.1 0 2.2.7 2.6 1.5V5.4h2.8V18H146zm4.7-11.6c0 1 .8 1.7 1.8 1.7s1.8-.8 1.8-1.7c0-1-.8-1.7-1.8-1.7s-1.8.8-1.8 1.7zm.4 11.6h2.8V9.3h-2.8V18zm5.1 0h2.8v-4.4c0-1.3.6-2.2 1.7-2.2 1.2 0 1.5.9 1.5 2.1V18h2.8v-5.1c0-1.2-.1-2.1-.7-2.8-.5-.6-1.3-1-2.4-1-1.3 0-2.4.5-2.8 1.5V9.3h-2.8V18zm15.2-6.6c-1.2 0-2.1 1-2.1 2.2 0 1.2.8 2.2 2.1 2.2s2.1-1 2.1-2.2c0-1.1-.9-2.2-2.1-2.2zm4.8-2.1v8.6c0 1.6-.5 2.6-1.4 3.3-.8.6-1.9.9-3.5.9s-2.7-.4-3.4-1c-.8-.6-1.2-1.5-1.3-2.5h2.8c.1.7.7 1.5 1.9 1.5 1.3 0 2.1-.6 2.1-2v-1.5c-.5.8-1.5 1.3-2.6 1.3-2.5 0-4.2-1.8-4.2-4.4 0-2.6 1.7-4.6 4.2-4.6 1.1 0 2.2.5 2.7 1.5V9.3h2.7zM49.2 37V24.4h5.3c2.8 0 4.6 2.1 4.6 4.6s-1.8 4.6-4.6 4.6h-2.4V37h-2.9zm4.9-5.9c1.2 0 2-1 2-2.2 0-1.2-.8-2.2-2-2.2h-2v4.4h2zm10.8 3.8c1.2 0 2.1-1 2.1-2.2 0-1.2-.8-2.2-2.1-2.2-1.2 0-2.1 1-2.1 2.2 0 1.2.8 2.2 2.1 2.2zm2-6.6h2.8V37h-2.8v-1.2c-.4.8-1.5 1.4-2.6 1.4-2.5 0-4.2-2-4.2-4.6 0-2.6 1.7-4.6 4.2-4.6 1.1 0 2.2.7 2.6 1.5v-1.2zm10.5 6.6c-.3 0-.6.1-1 .1-.7 0-1.2-.2-1.2-1.5v-3.1h2v-2.1h-2v-2.6h-2.7v2.6h-1.4v2.1h1.4v3.7c0 2.9 1.8 3.1 3.1 3.1.8 0 1.4-.1 1.8-.1v-2.2zm1.1-9.5c0 1 .8 1.7 1.8 1.7s1.8-.8 1.8-1.7c0-1-.8-1.7-1.8-1.7s-1.8.8-1.8 1.7zm.4 11.6h2.8v-8.7h-2.8V37zm13.5-3.7h-6.2c.1 1 .5 1.9 1.9 1.9 1 0 1.4-.4 1.6-1h2.7c-.3 1.6-1.8 3-4.3 3-3 0-4.7-1.9-4.7-4.6 0-2.5 1.6-4.6 4.6-4.6 2.7 0 4.5 1.8 4.5 4 0 .4 0 .8-.1 1.3zm-4.3-3.4c-1.1 0-1.9.6-1.9 1.8h3.6c0-1.1-.7-1.8-1.7-1.8zm6.3 7.1h2.8v-4.4c0-1.3.6-2.2 1.7-2.2 1.2 0 1.5.9 1.5 2.1V37h2.8v-5.1c0-1.2-.1-2.1-.7-2.8-.5-.6-1.3-1-2.4-1-1.3 0-2.4.5-2.8 1.5v-1.3h-2.8V37zm16.3-2.1c-.3 0-.6.1-1 .1-.7 0-1.2-.2-1.2-1.5v-3.1h2v-2.1h-2v-2.6h-2.7v2.6h-1.4v2.1h1.4v3.7c0 2.9 1.8 3.1 3.1 3.1.8 0 1.4-.1 1.8-.1v-2.2zm5.9-10.5h4.6c4.2 0 6.6 3.1 6.6 6.3s-2.4 6.3-6.6 6.3h-4.6V24.4zm4.5 2.5h-1.6v7.6h1.6c2.4 0 3.7-1.8 3.7-3.8s-1.3-3.8-3.7-3.8zm12.7 8c1.2 0 2.1-1 2.1-2.2 0-1.2-.8-2.2-2.1-2.2-1.2 0-2.1 1-2.1 2.2.1 1.2.9 2.2 2.1 2.2zm2.1-6.6h2.8V37h-2.8v-1.2c-.4.8-1.5 1.4-2.6 1.4-2.5 0-4.2-2-4.2-4.6 0-2.6 1.7-4.6 4.2-4.6 1.1 0 2.2.7 2.6 1.5v-1.2zm10.5 6.6c-.3 0-.6.1-1 .1-.7 0-1.2-.2-1.2-1.5v-3.1h2v-2.1h-2v-2.6h-2.7v2.6h-1.4v2.1h1.4v3.7c0 2.9 1.8 3.1 3.1 3.1.8 0 1.4-.1 1.8-.1v-2.2zm5.7 0c1.2 0 2.1-1 2.1-2.2 0-1.2-.8-2.2-2.1-2.2-1.2 0-2.1 1-2.1 2.2.1 1.2.9 2.2 2.1 2.2zm2.1-6.6h2.8V37h-2.8v-1.2c-.4.8-1.5 1.4-2.6 1.4-2.5 0-4.2-2-4.2-4.6 0-2.6 1.7-4.6 4.2-4.6 1.1 0 2.2.7 2.6 1.5v-1.2z"/></svg>