<svg xmlns="http://www.w3.org/2000/svg" height="31" viewBox="0 0 77 31" width="77"><path fill="#fff" d="M5.3 4.9L3.2.5h-1l-.8 6.6h1.2l.5-4.4 1.7 3.6h1l1.7-3.6.5 4.4h1.2L8.5.5H7.4L5.3 4.9zm8.5 2.2v-.6c-.3.5-.9.7-1.4.7-1.2 0-2.3-.9-2.3-2.3s1.1-2.3 2.3-2.3c.4 0 1.1.2 1.4.7v-.7H15v4.5h-1.2zm-2.5-2.3c0 .7.6 1.2 1.2 1.2s1.2-.4 1.2-1.2c0-.8-.6-1.2-1.2-1.2s-1.2.5-1.2 1.2zm8.3 2.3v-.7c-.2.4-.8.7-1.4.7-1.2 0-2.2-.9-2.2-2.3s1-2.3 2.2-2.3c.6 0 1.2.2 1.4.7v-3h1.2v6.9h-1.2zm0-2.3c0-.8-.6-1.2-1.2-1.2-.7 0-1.2.5-1.2 1.2S17.7 6 18.4 6c.6 0 1.2-.5 1.2-1.2zm6.8 0v.4H23c.1.6.6 1 1.2 1 .4 0 .9-.2 1.1-.6.3.2.6.3.9.5-.4.8-1.3 1.1-2.1 1.1-1.3 0-2.3-.9-2.3-2.3s1-2.3 2.3-2.3 2.3.8 2.3 2.2zm-3.5-.4h2.3c-.1-.6-.5-.9-1.1-.9-.6 0-1.1.3-1.2.9zm8 .4c0 .7.6 1.2 1.2 1.2.7 0 1.2-.5 1.2-1.2s-.5-1.2-1.2-1.2c-.6 0-1.2.4-1.2 1.2zm0 2.3h-1.2V.2h1.2v3c.2-.4.8-.7 1.4-.7 1.2 0 2.2.9 2.2 2.3s-1 2.3-2.2 2.3c-.6 0-1.2-.2-1.4-.7v.7zm8.7-4.5h-1.2l-1.1 2.8-1.1-2.8H35l1.7 4.1-1 2.5h1.2l2.7-6.6zM23.1 27.4c-1.6 0-3.2-1.2-3.2-3.1 0-2 1.6-3.1 3.2-3.1 1.5 0 3.2 1.1 3.2 3.1 0 2.1-1.6 3.1-3.2 3.1zm3.2-9.3v1.2c-.9-1.1-2.5-1.5-3.6-1.5-3.1 0-6.3 2.3-6.3 6.4s3.3 6.4 6.3 6.4c1.2 0 2.8-.5 3.6-1.5v1.3h3.4V18.1h-3.4zm14.1 8.1l-.1.1c-.5.7-1.4 1.2-2.4 1.2-1.6 0-3.3-1.2-3.3-3.2s1.7-3.1 3.3-3.1c1 0 1.9.4 2.4 1.1l.1.1 2.7-2.1-.1-.1c-1.1-1.5-3.1-2.4-5.1-2.4-3.8 0-6.7 2.8-6.7 6.4 0 3.7 2.9 6.5 6.7 6.5 2.1 0 4-.9 5.2-2.4l.1-.1-2.8-2zm9-8.1v-4.6H46v4.6h-2.2v2.8H46v9.6h3.4v-9.6H52v-2.8h-2.6zm9.6 9.3c-1.6 0-3.2-1.2-3.2-3.1 0-2 1.6-3.1 3.2-3.1 1.5 0 3.2 1.1 3.2 3.1-.1 2.1-1.7 3.1-3.2 3.1zm3.1-9.3v1.2c-.9-1.1-2.5-1.5-3.6-1.5-3.1 0-6.3 2.3-6.3 6.4s3.3 6.4 6.3 6.4c1.2 0 2.8-.5 3.6-1.5v1.3h3.4V18.1h-3.4zm14.3.2c-.6-.3-1.3-.5-2.1-.5-1.4 0-2.6.9-3.3 2.4V18h-3.4v12.4H71V26c0-3.4.9-5 2.9-5 .3 0 1.1 0 1.8.3l.2.1.5-3.1zm-65.2-6v7.5H4.3v-7.5H.7v18.2h3.6v-7.4h6.9v7.4h3.6V12.3h-3.6z"/></svg>