<?xml version="1.0" ?><svg height="24px" version="1.1" viewBox="0 0 24 24" width="24px" xmlns="http://www.w3.org/2000/svg" xmlns:sketch="http://www.bohemiancoding.com/sketch/ns" xmlns:xlink="http://www.w3.org/1999/xlink"><title/><desc/><defs/><g fill="none" fill-rule="evenodd" id="miu" stroke="none" stroke-width="1"><g id="Artboard-1" transform="translate(-719.000000, -659.000000)"><g id="slice" transform="translate(215.000000, 119.000000)"/><path d="M725.778872,667 L736.221128,667 L731,671.362053 L725.778872,667 Z M737,667.650854 L737,674.295797 L733.013034,670.973326 L737,667.650854 Z M736.284983,675 L725.715017,675 L729.761828,671.619044 L731,672.650854 L732.238172,671.619044 L736.284983,675 Z M725,674.295797 L725,667.650854 L728.986966,670.973326 L725,674.295797 Z M731,682 C737.075133,682 742,677.075133 742,671 C742,664.924867 737.075133,660 731,660 C724.924867,660 720,664.924867 720,671 C720,677.075133 724.924867,682 731,682 Z M731,681 C736.522848,681 741,676.522848 741,671 C741,665.477152 736.522848,661 731,661 C725.477152,661 721,665.477152 721,671 C721,676.522848 725.477152,681 731,681 Z" fill="#000000" id="circle-social-email-outline-stroke"/></g></g></svg>