<?xml version="1.0" encoding="utf-8"?>
<!-- Generator: Adobe Illustrator 21.0.2, SVG Export Plug-In . SVG Version: 6.00 Build 0)  -->
<svg version="1.1" id="Layer_1" xmlns="http://www.w3.org/2000/svg" xmlns:xlink="http://www.w3.org/1999/xlink" x="0px" y="0px"
	 viewBox="0 0 56 56" style="enable-background:new 0 0 56 56;" xml:space="preserve">
<style type="text/css">
	.st0{fill:#D8E2E7;}
	.st1{fill:#92B0CB;}
</style>
<g>
	<path class="st0" d="M40,4c-4.1,0-9,2.1-12,7.8C24.9,6.1,20.1,4,16,4C9.1,4,2,9.8,2,19.4c0,13.9,23.7,31.4,24.7,32.1
		c0.7,0.5,1.8,0.5,2.5,0c1-0.7,24.7-18.3,24.7-32.1C54,9.8,46.9,4,40,4z"/>
</g>
<g>
	<path class="st1" d="M52.2,31.6c0,0.7-0.6,1.3-1.2,1.3H36.8l-2.7,5.6c-0.2,0.4-0.6,0.7-1.1,0.7c-0.6,0-1.1-0.4-1.2-1l-3.1-11.6
		l-3.6,7.6c-0.2,0.4-0.6,0.7-1,0.7c-0.5,0-0.9-0.2-1.2-0.6l-3-4.8L18,32.3c-0.2,0.3-0.6,0.5-1,0.5H5c-0.7,0-1.2-0.6-1.2-1.3
		c0-0.7,0.6-1.3,1.2-1.3h11.4l2.6-3.7c0.2-0.3,0.6-0.5,1-0.5c0.4,0,0.8,0.2,1,0.6l2.8,4.5l4-8.6c0.2-0.4,0.6-0.7,1.1-0.7
		c0.6,0,1.1,0.4,1.2,1l3.1,11.6l1.6-3.3c0.2-0.4,0.6-0.7,1.1-0.7h15C51.7,30.2,52.2,30.8,52.2,31.6z"/>
</g>
</svg>
