<?xml version="1.0" encoding="utf-8"?>
<!-- Generator: Adobe Illustrator 21.0.2, SVG Export Plug-In . SVG Version: 6.00 Build 0)  -->
<svg version="1.1" id="Layer_1" xmlns="http://www.w3.org/2000/svg" xmlns:xlink="http://www.w3.org/1999/xlink" x="0px" y="0px"
	 viewBox="0 0 56 56" style="enable-background:new 0 0 56 56;" xml:space="preserve">
<style type="text/css">
	.st0{fill:#D8E2E7;}
	.st1{fill:#92B0CB;}
</style>
<g>
	<g>
		<path class="st0" d="M47.5,9.8h-1.3V1.6c0-0.5-0.5-1-1-1H13.1c-3.1,0-5.6,2.5-5.6,5.6v43.5c0,3.1,2.5,5.6,5.6,5.6h34.4
			c0.5,0,1-0.5,1-1V10.8C48.5,10.3,48,9.8,47.5,9.8z M44.2,9.8h-2.4V6.4c0-0.5-0.4-1-1-1H13.2c-0.5,0-1,0.5-1,1c0,0.6,0.5,1,1,1
			h26.5v2.4H13.1c-2,0-3.6-1.6-3.6-3.6c0-2,1.6-3.6,3.6-3.6h31.1V9.8z"/>
	</g>
</g>
<path class="st1" d="M29.1,23.2c2.3,0,4.2,1.9,4.2,4.2s-1.9,4.2-4.2,4.2S25,29.7,25,27.4S26.8,23.2,29.1,23.2z M29.1,31.6
	c-2.8,0-7.5,1.9-7.5,8.4h15.1C36.7,33.5,31.9,31.6,29.1,31.6z"/>
</svg>
