<?xml version="1.0" encoding="utf-8"?>
<svg xmlns="http://www.w3.org/2000/svg" viewBox="0 0 30 30">
<path  fill="currentColor" d="M21.7,12.5c0,0.1,0,0.3,0,0.4c0,4.1-3.1,8.8-8.8,8.8c-1.7,0-3.4-0.5-4.7-1.4c1.6,0.2,3.2-0.2,4.6-1.3
	c-1.3,0-2.5-0.9-2.9-2.1c0.5,0.1,0.9,0.1,1.4-0.1c-1.4-0.3-2.5-1.5-2.5-3l0,0c0.4,0.2,0.9,0.4,1.4,0.4c-0.8-0.6-1.4-1.5-1.4-2.6
	C8.8,11,9,10.5,9.2,10c1.5,1.9,3.8,3.1,6.4,3.2c-0.1-0.2-0.1-0.5-0.1-0.7c0-1.7,1.4-3.1,3.1-3.1c0.9,0,1.7,0.4,2.3,1
	c0.7-0.1,2.3-0.3,2.3-0.3C22.7,10.8,22.3,12.1,21.7,12.5z"/>
</svg>
