<svg viewBox="0 0 200 70" xmlns="http://www.w3.org/2000/svg">

    <title>Understanding Patient Data</title>

    <path fill="#FFF" d="M70.008 27.698c0 2.592 1.89 4.626 4.896 4.626 3.024 0 4.914-2.034 4.914-4.626V19.4h-2.916v8.28c0 1.152-.81 2.124-1.998 2.124s-1.98-.972-1.98-2.124V19.4h-2.916v8.298zM81.996 32h2.754v-4.356c0-1.332.558-2.196 1.674-2.196 1.152 0 1.53.864 1.53 2.106V32h2.754v-5.148c0-1.242-.144-2.088-.684-2.754-.468-.612-1.314-.99-2.43-.99-1.35 0-2.358.54-2.844 1.476v-1.26h-2.754V32zm15.192-2.124c1.242 0 2.07-1.008 2.07-2.214 0-1.188-.828-2.214-2.07-2.214s-2.07 1.026-2.07 2.214c0 1.206.828 2.214 2.07 2.214zM99.258 32v-1.224c-.414.792-1.53 1.44-2.646 1.44-2.502 0-4.23-1.962-4.23-4.554 0-2.592 1.728-4.554 4.23-4.554 1.116 0 2.232.666 2.646 1.458V19.4h2.754V32h-2.754zm13.518-3.672h-6.246c.054 1.044.486 1.926 1.926 1.926.954 0 1.422-.432 1.602-.99h2.7c-.252 1.638-1.8 2.97-4.284 2.97-3.042 0-4.68-1.89-4.68-4.572 0-2.538 1.602-4.572 4.608-4.572 2.718 0 4.464 1.836 4.464 3.96 0 .36 0 .756-.09 1.278zm-4.392-3.402c-1.08 0-1.854.648-1.854 1.818h3.636c0-1.116-.738-1.818-1.782-1.818zm12.582-1.602c-.252-.108-.486-.144-.828-.144-1.206 0-2.25.738-2.646 1.548v-1.404h-2.754V32h2.754v-3.384c0-2.124.99-2.916 2.502-2.916.378 0 .594.036.972.126v-2.502zm5.832 3.564c-1.458-.486-2.214-.594-2.214-1.224 0-.522.468-.774 1.026-.774.756 0 1.134.414 1.134 1.134h2.718c0-1.656-1.224-2.934-3.744-2.934-2.34 0-3.834.846-3.834 2.646 0 1.674 1.242 2.088 2.682 2.538 1.638.54 2.322.63 2.322 1.296 0 .576-.468.81-1.134.81-.81 0-1.386-.36-1.386-1.278h-2.7c0 1.998 1.53 3.132 3.996 3.132 2.16 0 3.924-.738 3.924-2.79 0-1.692-1.26-2.106-2.79-2.556zm10.044 3.006c-.252.036-.648.054-.99.054-.684 0-1.188-.198-1.188-1.476v-3.096h1.98v-2.052h-1.98V20.75h-2.736v2.574h-1.368v2.052h1.368v3.708c0 2.898 1.782 3.06 3.078 3.06.81 0 1.422-.072 1.836-.144v-2.106zm5.742-.018c1.242 0 2.07-1.008 2.07-2.214 0-1.188-.828-2.214-2.07-2.214s-2.07 1.026-2.07 2.214c0 1.206.828 2.214 2.07 2.214zm2.07-6.552h2.754V32h-2.754v-1.224c-.414.792-1.53 1.44-2.646 1.44-2.502 0-4.23-1.962-4.23-4.554 0-2.592 1.728-4.554 4.23-4.554 1.116 0 2.232.666 2.646 1.458v-1.242zM149.748 32h2.754v-4.356c0-1.332.558-2.196 1.674-2.196 1.152 0 1.53.864 1.53 2.106V32h2.754v-5.148c0-1.242-.144-2.088-.684-2.754-.468-.612-1.314-.99-2.43-.99-1.35 0-2.358.54-2.844 1.476v-1.26h-2.754V32zm15.192-2.124c1.242 0 2.07-1.008 2.07-2.214 0-1.188-.828-2.214-2.07-2.214s-2.07 1.026-2.07 2.214c0 1.206.828 2.214 2.07 2.214zM167.01 32v-1.224c-.414.792-1.53 1.44-2.646 1.44-2.502 0-4.23-1.962-4.23-4.554 0-2.592 1.728-4.554 4.23-4.554 1.116 0 2.232.666 2.646 1.458V19.4h2.754V32h-2.754zm4.698-11.556c0 .954.774 1.746 1.764 1.746 1.008 0 1.782-.792 1.782-1.746 0-.972-.774-1.746-1.782-1.746-.99 0-1.764.774-1.764 1.746zM172.104 32h2.754v-8.676h-2.754V32zm5.094 0h2.754v-4.356c0-1.332.558-2.196 1.674-2.196 1.152 0 1.53.864 1.53 2.106V32h2.754v-5.148c0-1.242-.144-2.088-.684-2.754-.468-.612-1.314-.99-2.43-.99-1.35 0-2.358.54-2.844 1.476v-1.26h-2.754V32zm15.192-6.552c-1.224 0-2.052 1.026-2.052 2.214 0 1.206.828 2.214 2.052 2.214 1.26 0 2.088-1.008 2.088-2.214 0-1.188-.828-2.214-2.088-2.214zm4.842-2.124v8.622c0 1.566-.468 2.592-1.368 3.276-.81.612-1.908.936-3.51.936-1.62 0-2.682-.396-3.402-1.008-.756-.648-1.224-1.53-1.26-2.484h2.754c.072.738.72 1.458 1.908 1.458 1.296 0 2.124-.612 2.124-1.962v-1.458c-.468.792-1.53 1.35-2.646 1.35-2.502 0-4.248-1.818-4.248-4.392 0-2.592 1.674-4.554 4.212-4.554 1.098 0 2.196.54 2.682 1.458v-1.242h2.754zM70.206 51V38.4h5.274c2.79 0 4.59 2.106 4.59 4.554 0 2.448-1.8 4.554-4.59 4.554h-2.358V51h-2.916zm4.914-5.868c1.224 0 2.016-1.008 2.016-2.178s-.792-2.178-2.016-2.178h-1.998v4.356h1.998zm10.746 3.744c1.242 0 2.07-1.008 2.07-2.214 0-1.188-.828-2.214-2.07-2.214s-2.07 1.026-2.07 2.214c0 1.206.828 2.214 2.07 2.214zm2.07-6.552h2.754V51h-2.754v-1.224c-.414.792-1.53 1.44-2.646 1.44-2.502 0-4.23-1.962-4.23-4.554 0-2.592 1.728-4.554 4.23-4.554 1.116 0 2.232.666 2.646 1.458v-1.242zm10.512 6.57c-.252.036-.648.054-.99.054-.684 0-1.188-.198-1.188-1.476v-3.096h1.98v-2.052h-1.98V39.75h-2.736v2.574h-1.368v2.052h1.368v3.708c0 2.898 1.782 3.06 3.078 3.06.81 0 1.422-.072 1.836-.144v-2.106zm1.08-9.45c0 .954.774 1.746 1.764 1.746 1.008 0 1.782-.792 1.782-1.746 0-.972-.774-1.746-1.782-1.746-.99 0-1.764.774-1.764 1.746zM99.924 51h2.754v-8.676h-2.754V51zm13.518-3.672h-6.246c.054 1.044.486 1.926 1.926 1.926.954 0 1.422-.432 1.602-.99h2.7c-.252 1.638-1.8 2.97-4.284 2.97-3.042 0-4.68-1.89-4.68-4.572 0-2.538 1.602-4.572 4.608-4.572 2.718 0 4.464 1.836 4.464 3.96 0 .36 0 .756-.09 1.278zm-4.392-3.402c-1.08 0-1.854.648-1.854 1.818h3.636c0-1.116-.738-1.818-1.782-1.818zM115.404 51h2.754v-4.356c0-1.332.558-2.196 1.674-2.196 1.152 0 1.53.864 1.53 2.106V51h2.754v-5.148c0-1.242-.144-2.088-.684-2.754-.468-.612-1.314-.99-2.43-.99-1.35 0-2.358.54-2.844 1.476v-1.26h-2.754V51zm16.344-2.106c-.252.036-.648.054-.99.054-.684 0-1.188-.198-1.188-1.476v-3.096h1.98v-2.052h-1.98V39.75h-2.736v2.574h-1.368v2.052h1.368v3.708c0 2.898 1.782 3.06 3.078 3.06.81 0 1.422-.072 1.836-.144v-2.106zm5.886-10.494h4.626c4.176 0 6.552 3.078 6.552 6.3s-2.358 6.3-6.552 6.3h-4.626V38.4zm4.482 2.52h-1.566v7.56h1.566c2.358 0 3.726-1.836 3.726-3.78 0-1.944-1.368-3.78-3.726-3.78zm12.708 7.956c1.242 0 2.07-1.008 2.07-2.214 0-1.188-.828-2.214-2.07-2.214s-2.07 1.026-2.07 2.214c0 1.206.828 2.214 2.07 2.214zm2.07-6.552h2.754V51h-2.754v-1.224c-.414.792-1.53 1.44-2.646 1.44-2.502 0-4.23-1.962-4.23-4.554 0-2.592 1.728-4.554 4.23-4.554 1.116 0 2.232.666 2.646 1.458v-1.242zm10.512 6.57c-.252.036-.648.054-.99.054-.684 0-1.188-.198-1.188-1.476v-3.096h1.98v-2.052h-1.98V39.75h-2.736v2.574h-1.368v2.052h1.368v3.708c0 2.898 1.782 3.06 3.078 3.06.81 0 1.422-.072 1.836-.144v-2.106zm5.742-.018c1.242 0 2.07-1.008 2.07-2.214 0-1.188-.828-2.214-2.07-2.214s-2.07 1.026-2.07 2.214c0 1.206.828 2.214 2.07 2.214zm2.07-6.552h2.754V51h-2.754v-1.224c-.414.792-1.53 1.44-2.646 1.44-2.502 0-4.23-1.962-4.23-4.554 0-2.592 1.728-4.554 4.23-4.554 1.116 0 2.232.666 2.646 1.458v-1.242z"></path>

    <path fill="#FFF" d="M53.446 30.424c0-9.318-7.328-17.02-16.737-18.074-.73-.082-1.467-.128-2.21-.128-.75 0-.847.008-.847.008-.75.066-1.366.712-1.366 1.437v6.822c-4.774.973-8.368 5.06-8.368 9.93v15.82c0 .723.616 1.315 1.37 1.315h1.675c.75 0 1.37-.593 1.37-1.318V30.42c0-3.262 2.762-5.917 6.16-5.917 3.395 0 6.16 2.655 6.16 5.918v6.94c0 .725.47.934 1.044.465 0 0 .705-.576 1.376-1.47 1.254-1.67 1.994-3.718 1.994-5.93 0-4.875-3.593-8.956-8.367-9.935v-3.865c6.966 1.024 12.32 6.822 12.32 13.797 0 4.88-2.62 9.178-6.574 11.674-.575.36-1.188.664-1.188.664-.336.168-.61.6-.61.96v2.597c0 .724.576 1.103 1.278.84 0 0 .514-.19 1.356-.617 6.03-3.05 10.153-9.127 10.153-16.116m-27.316 22c-3.39 0-6.15-2.644-6.16-5.9V30.687c0-.725-.617-1.317-1.37-1.317H16.92c-.755 0-1.37.59-1.37 1.315v15.82c0 5.602 4.742 10.16 10.574 10.16 5.83 0 10.576-4.56 10.576-10.16v-15.82c0-.725-.618-1.317-1.372-1.317H33.66c-.754 0-1.37.59-1.37 1.316v15.82c0 3.262-2.764 5.917-6.16 5.917"></path>

</svg>