<?xml version="1.0" encoding="utf-8"?>
<svg xmlns="http://www.w3.org/2000/svg" height="31px" viewBox="0 0 77 31" width="77px">
<path fill="#fff" d="M5.3,4.9L3.2,0.5h-1L1.4,7.1h1.2l0.5-4.4l1.7,3.6h1l1.7-3.6l0.5,4.4h1.2L8.5,0.5H7.4L5.3,4.9z M13.8,7.1V6.5
	c-0.3,0.5-0.9,0.7-1.4,0.7c-1.2,0-2.3-0.9-2.3-2.3c0-1.4,1.1-2.3,2.3-2.3c0.4,0,1.1,0.2,1.4,0.7V2.6h1.2v4.5H13.8z M11.3,4.8
	c0,0.7,0.6,1.2,1.2,1.2c0.6,0,1.2-0.4,1.2-1.2c0-0.8-0.6-1.2-1.2-1.2C11.9,3.6,11.3,4.1,11.3,4.8z M19.6,7.1V6.4
	c-0.2,0.4-0.8,0.7-1.4,0.7C17,7.1,16,6.2,16,4.8c0-1.4,1-2.3,2.2-2.3c0.6,0,1.2,0.2,1.4,0.7v-3h1.2v6.9H19.6z M19.6,4.8
	c0-0.8-0.6-1.2-1.2-1.2c-0.7,0-1.2,0.5-1.2,1.2c0,0.7,0.5,1.2,1.2,1.2C19,6,19.6,5.5,19.6,4.8z M26.4,4.8c0,0.1,0,0.3,0,0.4h-3.4
	c0.1,0.6,0.6,1,1.2,1c0.4,0,0.9-0.2,1.1-0.6c0.3,0.2,0.6,0.3,0.9,0.5c-0.4,0.8-1.3,1.1-2.1,1.1c-1.3,0-2.3-0.9-2.3-2.3
	s1-2.3,2.3-2.3S26.4,3.4,26.4,4.8z M22.9,4.4h2.3c-0.1-0.6-0.5-0.9-1.1-0.9C23.5,3.5,23,3.8,22.9,4.4z M30.9,4.8
	c0,0.7,0.6,1.2,1.2,1.2c0.7,0,1.2-0.5,1.2-1.2c0-0.7-0.5-1.2-1.2-1.2C31.5,3.6,30.9,4,30.9,4.8z M30.9,7.1h-1.2V0.2h1.2v3
	c0.2-0.4,0.8-0.7,1.4-0.7c1.2,0,2.2,0.9,2.2,2.3c0,1.4-1,2.3-2.2,2.3c-0.6,0-1.2-0.2-1.4-0.7V7.1z M39.6,2.6h-1.2l-1.1,2.8l-1.1-2.8
	h-1.2l1.7,4.1l-1,2.5h1.2L39.6,2.6z M23.1,27.4c-1.6,0-3.2-1.2-3.2-3.1c0-2,1.6-3.1,3.2-3.1c1.5,0,3.2,1.1,3.2,3.1
	C26.3,26.4,24.7,27.4,23.1,27.4L23.1,27.4z M26.3,18.1v1.2c-0.9-1.1-2.5-1.5-3.6-1.5c-3.1,0-6.3,2.3-6.3,6.4s3.3,6.4,6.3,6.4
	c1.2,0,2.8-0.5,3.6-1.5v1.3h3.4V18.1H26.3z M40.4,26.2l-0.1,0.1c-0.5,0.7-1.4,1.2-2.4,1.2c-1.6,0-3.3-1.2-3.3-3.2
	c0-2,1.7-3.1,3.3-3.1c1,0,1.9,0.4,2.4,1.1l0.1,0.1l2.7-2.1l-0.1-0.1c-1.1-1.5-3.1-2.4-5.1-2.4c-3.8,0-6.7,2.8-6.7,6.4
	c0,3.7,2.9,6.5,6.7,6.5c2.1,0,4-0.9,5.2-2.4l0.1-0.1L40.4,26.2z M49.4,18.1v-4.6H46v4.6h-2.2v2.8H46v9.6h3.4v-9.6H52v-2.8H49.4z
	 M59,27.4c-1.6,0-3.2-1.2-3.2-3.1c0-2,1.6-3.1,3.2-3.1c1.5,0,3.2,1.1,3.2,3.1C62.1,26.4,60.5,27.4,59,27.4L59,27.4z M62.1,18.1v1.2
	c-0.9-1.1-2.5-1.5-3.6-1.5c-3.1,0-6.3,2.3-6.3,6.4s3.3,6.4,6.3,6.4c1.2,0,2.8-0.5,3.6-1.5v1.3h3.4V18.1H62.1z M76.4,18.3
	c-0.6-0.3-1.3-0.5-2.1-0.5c-1.4,0-2.6,0.9-3.3,2.4v-2.2h-3.4v12.4H71v-4.4c0-3.4,0.9-5,2.9-5c0.3,0,1.1,0,1.8,0.3l0.2,0.1L76.4,18.3
	L76.4,18.3z M11.2,12.3v7.5H4.3v-7.5H0.7v18.2h3.6v-7.4h6.9v7.4h3.6V12.3H11.2z"/>
</svg>
